<svg width="266" height="57" viewBox="0 0 266 57" fill="none" xmlns="http://www.w3.org/2000/svg">
<g clip-path="url(#clip0_1566_26270)">
<g filter="url(#filter0_d_1566_26270)">
<path fill-rule="evenodd" clip-rule="evenodd" d="M15.4953 8.5H41.7996C45.5816 8.5 48.6475 11.5659 48.6475 15.3478V41.6522C48.6475 45.4341 45.5816 48.5 41.7996 48.5H15.4953C11.7133 48.5 8.64746 45.4341 8.64746 41.6522V15.3478C8.64746 11.5659 11.7133 8.5 15.4953 8.5ZM15.4953 11.1087C13.1541 11.1087 11.2562 13.0066 11.2562 15.3478V41.6522C11.2562 43.9934 13.1541 45.8913 15.4953 45.8913H41.7996C44.1408 45.8913 46.0388 43.9934 46.0388 41.6522V15.3478C46.0388 13.0066 44.1408 11.1087 41.7996 11.1087H15.4953Z" fill="white"/>
<path d="M40.809 23.5141C42.0266 23.5141 43.0138 22.5021 43.0138 21.2538C43.0138 20.0056 42.0266 18.9936 40.809 18.9936C39.8831 18.9936 39.0905 19.5786 38.7639 20.4079C36.4893 20.7211 34.6802 21.5687 33.1522 22.7263C31.2642 24.1567 29.8349 26.0443 28.5135 27.7892L28.4704 27.8462C27.1036 29.6511 25.8431 31.3037 24.2213 32.532C22.7235 33.6664 20.891 34.4539 18.3433 34.5319C17.9519 33.9023 17.2649 33.4847 16.4828 33.4847C15.2651 33.4847 14.2779 34.4967 14.2779 35.7451C14.2779 36.9934 15.2651 38.0053 16.4828 38.0053C17.3277 38.0053 18.0616 37.518 18.4318 36.8026C21.4296 36.7064 23.6898 35.7599 25.5385 34.3598C27.4278 32.929 28.8576 31.0407 30.1794 29.2952L30.2214 29.2398C31.5883 27.4348 32.8483 25.7822 34.4696 24.554C35.7068 23.6166 37.1722 22.9162 39.0805 22.6572C39.4844 23.1793 40.1086 23.5141 40.809 23.5141Z" fill="white"/>
</g>
<path d="M65.0075 19.1V26.1H74.4075V30.54H65.0075V37.94H75.6075V42.5H59.4075V14.54H75.6075V19.1H65.0075ZM78.0565 31.34C78.0565 29.1 78.4965 27.1133 79.3765 25.38C80.2832 23.6467 81.4965 22.3133 83.0165 21.38C84.5632 20.4467 86.2832 19.98 88.1765 19.98C89.8299 19.98 91.2699 20.3133 92.4965 20.98C93.7499 21.6467 94.7499 22.4867 95.4965 23.5V20.34H101.137V42.5H95.4965V39.26C94.7765 40.3 93.7765 41.1667 92.4965 41.86C91.2432 42.5267 89.7899 42.86 88.1365 42.86C86.2699 42.86 84.5632 42.38 83.0165 41.42C81.4965 40.46 80.2832 39.1133 79.3765 37.38C78.4965 35.62 78.0565 33.6067 78.0565 31.34ZM95.4965 31.42C95.4965 30.06 95.2299 28.9 94.6965 27.94C94.1632 26.9533 93.4432 26.2067 92.5365 25.7C91.6299 25.1667 90.6565 24.9 89.6165 24.9C88.5765 24.9 87.6165 25.1533 86.7365 25.66C85.8565 26.1667 85.1365 26.9133 84.5765 27.9C84.0432 28.86 83.7765 30.0067 83.7765 31.34C83.7765 32.6733 84.0432 33.8467 84.5765 34.86C85.1365 35.8467 85.8565 36.6067 86.7365 37.14C87.6432 37.6733 88.6032 37.94 89.6165 37.94C90.6565 37.94 91.6299 37.6867 92.5365 37.18C93.4432 36.6467 94.1632 35.9 94.6965 34.94C95.2299 33.9533 95.4965 32.78 95.4965 31.42ZM113.886 42.86C112.073 42.86 110.446 42.54 109.006 41.9C107.566 41.2333 106.419 40.34 105.566 39.22C104.739 38.1 104.286 36.86 104.206 35.5H109.846C109.953 36.3533 110.366 37.06 111.086 37.62C111.833 38.18 112.753 38.46 113.846 38.46C114.913 38.46 115.739 38.2467 116.326 37.82C116.939 37.3933 117.246 36.8467 117.246 36.18C117.246 35.46 116.873 34.9267 116.126 34.58C115.406 34.2067 114.246 33.8067 112.646 33.38C110.993 32.98 109.633 32.5667 108.566 32.14C107.526 31.7133 106.619 31.06 105.846 30.18C105.099 29.3 104.726 28.1133 104.726 26.62C104.726 25.3933 105.073 24.2733 105.766 23.26C106.486 22.2467 107.499 21.4467 108.806 20.86C110.139 20.2733 111.699 19.98 113.486 19.98C116.126 19.98 118.233 20.6467 119.806 21.98C121.379 23.2867 122.246 25.06 122.406 27.3H117.046C116.966 26.42 116.593 25.7267 115.926 25.22C115.286 24.6867 114.419 24.42 113.326 24.42C112.313 24.42 111.526 24.6067 110.966 24.98C110.433 25.3533 110.166 25.8733 110.166 26.54C110.166 27.2867 110.539 27.86 111.286 28.26C112.033 28.6333 113.193 29.02 114.766 29.42C116.366 29.82 117.686 30.2333 118.726 30.66C119.766 31.0867 120.659 31.7533 121.406 32.66C122.179 33.54 122.579 34.7133 122.606 36.18C122.606 37.46 122.246 38.6067 121.526 39.62C120.833 40.6333 119.819 41.4333 118.486 42.02C117.179 42.58 115.646 42.86 113.886 42.86ZM147.203 20.34L133.483 52.98H127.523L132.323 41.94L123.443 20.34H129.723L135.443 35.82L141.243 20.34H147.203ZM147.662 28.5C147.662 25.7533 148.275 23.3 149.502 21.14C150.755 18.9533 152.448 17.26 154.582 16.06C156.742 14.8333 159.155 14.22 161.822 14.22C164.942 14.22 167.675 15.02 170.022 16.62C172.368 18.22 174.008 20.4333 174.942 23.26H168.502C167.862 21.9267 166.955 20.9267 165.782 20.26C164.635 19.5933 163.302 19.26 161.782 19.26C160.155 19.26 158.702 19.6467 157.422 20.42C156.168 21.1667 155.182 22.2333 154.462 23.62C153.768 25.0067 153.422 26.6333 153.422 28.5C153.422 30.34 153.768 31.9667 154.462 33.38C155.182 34.7667 156.168 35.8467 157.422 36.62C158.702 37.3667 160.155 37.74 161.782 37.74C163.302 37.74 164.635 37.4067 165.782 36.74C166.955 36.0467 167.862 35.0333 168.502 33.7H174.942C174.008 36.5533 172.368 38.78 170.022 40.38C167.702 41.9533 164.968 42.74 161.822 42.74C159.155 42.74 156.742 42.14 154.582 40.94C152.448 39.7133 150.755 38.02 149.502 35.86C148.275 33.7 147.662 31.2467 147.662 28.5ZM191.005 20.02C192.685 20.02 194.178 20.3933 195.485 21.14C196.791 21.86 197.805 22.94 198.525 24.38C199.271 25.7933 199.645 27.5 199.645 29.5V42.5H194.045V30.26C194.045 28.5 193.605 27.1533 192.725 26.22C191.845 25.26 190.645 24.78 189.125 24.78C187.578 24.78 186.351 25.26 185.445 26.22C184.565 27.1533 184.125 28.5 184.125 30.26V42.5H178.525V12.9H184.125V23.1C184.845 22.14 185.805 21.3933 187.005 20.86C188.205 20.3 189.538 20.02 191.005 20.02ZM202.33 31.34C202.33 29.1 202.77 27.1133 203.65 25.38C204.557 23.6467 205.77 22.3133 207.29 21.38C208.837 20.4467 210.557 19.98 212.45 19.98C214.103 19.98 215.543 20.3133 216.77 20.98C218.023 21.6467 219.023 22.4867 219.77 23.5V20.34H225.41V42.5H219.77V39.26C219.05 40.3 218.05 41.1667 216.77 41.86C215.517 42.5267 214.063 42.86 212.41 42.86C210.543 42.86 208.837 42.38 207.29 41.42C205.77 40.46 204.557 39.1133 203.65 37.38C202.77 35.62 202.33 33.6067 202.33 31.34ZM219.77 31.42C219.77 30.06 219.503 28.9 218.97 27.94C218.437 26.9533 217.717 26.2067 216.81 25.7C215.903 25.1667 214.93 24.9 213.89 24.9C212.85 24.9 211.89 25.1533 211.01 25.66C210.13 26.1667 209.41 26.9133 208.85 27.9C208.317 28.86 208.05 30.0067 208.05 31.34C208.05 32.6733 208.317 33.8467 208.85 34.86C209.41 35.8467 210.13 36.6067 211.01 37.14C211.917 37.6733 212.877 37.94 213.89 37.94C214.93 37.94 215.903 37.6867 216.81 37.18C217.717 36.6467 218.437 35.9 218.97 34.94C219.503 33.9533 219.77 32.78 219.77 31.42ZM235.279 23.78C235.999 22.6067 236.933 21.6867 238.079 21.02C239.253 20.3533 240.586 20.02 242.079 20.02V25.9H240.599C238.839 25.9 237.506 26.3133 236.599 27.14C235.719 27.9667 235.279 29.4067 235.279 31.46V42.5H229.679V20.34H235.279V23.78ZM251.171 24.94V35.66C251.171 36.4067 251.345 36.9533 251.691 37.3C252.065 37.62 252.678 37.78 253.531 37.78H256.131V42.5H252.611C247.891 42.5 245.531 40.2067 245.531 35.62V24.94H242.891V20.34H245.531V14.86H251.171V20.34H256.131V24.94H251.171Z" fill="white"/>
</g>
<defs>
<filter id="filter0_d_1566_26270" x="7.64746" y="8.5" width="42" height="42" filterUnits="userSpaceOnUse" color-interpolation-filters="sRGB">
<feFlood flood-opacity="0" result="BackgroundImageFix"/>
<feColorMatrix in="SourceAlpha" type="matrix" values="0 0 0 0 0 0 0 0 0 0 0 0 0 0 0 0 0 0 127 0" result="hardAlpha"/>
<feOffset dy="1"/>
<feGaussianBlur stdDeviation="0.5"/>
<feComposite in2="hardAlpha" operator="out"/>
<feColorMatrix type="matrix" values="0 0 0 0 0.319089 0 0 0 0 0.0513889 0 0 0 0 0.770833 0 0 0 0.5 0"/>
<feBlend mode="normal" in2="BackgroundImageFix" result="effect1_dropShadow_1566_26270"/>
<feBlend mode="normal" in="SourceGraphic" in2="effect1_dropShadow_1566_26270" result="shape"/>
</filter>
<clipPath id="clip0_1566_26270">
<rect width="265" height="56" fill="white" transform="translate(0.647461 0.5)"/>
</clipPath>
</defs>
</svg>
